<svg width="28" height="29" viewBox="0 0 28 29" fill="none" xmlns="http://www.w3.org/2000/svg">
<g id="&#229;&#156;&#136;&#229;&#173;&#144;-&#230;&#156;&#170;&#233;&#128;&#137;&#228;&#184;&#173;">
<path id="Ellipse 14" d="M19.6161 7.46726C21.3772 8.87363 22.5466 10.8896 22.893 13.1165C23.2395 15.3435 22.7378 17.6194 21.4871 19.4943C20.2364 21.3692 18.3278 22.7067 16.1386 23.2422C13.9494 23.7778 11.639 23.4725 9.66402 22.3866C7.68906 21.3008 6.19336 19.5136 5.47262 17.3782C4.75188 15.2428 4.85855 12.9146 5.77155 10.8541C6.68455 8.79355 8.33741 7.15054 10.4034 6.24989C12.4694 5.34923 14.7981 5.25649 16.9291 5.98999" stroke="#959595" stroke-linecap="round"/>
<path id="Ellipse 15" d="M19.548 12.2153C20.1155 13.5935 20.1498 15.1336 19.6441 16.5357C19.1384 17.9378 18.129 19.1014 16.8123 19.8001C15.4957 20.4987 13.9662 20.6823 12.5217 20.315C11.0771 19.9478 9.82097 19.056 8.99787 17.8134C8.17477 16.5708 7.84363 15.0663 8.06896 13.593C8.29428 12.1196 9.05993 10.7828 10.2168 9.84304C11.3736 8.90323 12.8389 8.42765 14.3272 8.50893C15.8154 8.5902 17.2202 9.22251 18.2678 10.2827" stroke="#959595" stroke-linecap="round"/>
<path id="Ellipse 16" d="M16.4265 16.2642C16.0184 16.8255 15.4282 17.228 14.7565 17.403C14.0849 17.578 13.3734 17.5148 12.7432 17.224C12.1129 16.9332 11.6031 16.4329 11.3004 15.8083C10.9977 15.1837 10.9209 14.4735 11.0832 13.7987C11.2454 13.1238 11.6367 12.5261 12.1902 12.1074C12.7437 11.6887 13.4253 11.4748 14.1188 11.5023C14.8124 11.5298 15.4749 11.7969 15.9936 12.2581C16.5122 12.7193 16.8549 13.3461 16.9633 14.0317" stroke="#959595" stroke-linecap="round"/>
</g>
</svg>
