<svg width="16" height="16" viewBox="0 0 16 16" fill="none" xmlns="http://www.w3.org/2000/svg">
<g id="icon-&#228;&#184;&#170;&#230;&#149;&#176;">
<path id="Ellipse 8" d="M11.4845 1.92888C10.011 1.08319 8.28025 0.802237 6.61492 1.1384C4.94959 1.47457 3.46335 2.4049 2.4333 3.75596C1.40326 5.10701 0.899726 6.78656 1.01658 8.48146C1.13343 10.1764 1.86269 11.7709 3.0684 12.9678C4.2741 14.1647 5.87395 14.8823 7.56966 14.9868C9.26536 15.0912 10.9412 14.5754 12.2847 13.5355C13.6281 12.4956 14.5476 11.0026 14.8716 9.33484C15.1955 7.66709 14.9019 5.93844 14.0455 4.47119" stroke="white" stroke-width="1.5" stroke-linecap="round" stroke-linejoin="round"/>
<path id="Vector 2" d="M6 11V6.89394C6 5.84795 6.84795 5 7.89394 5V5C8.93993 5 9.78788 5.84795 9.78788 6.89394V9.78788C9.78788 10.4573 10.3306 11 11 11V11" stroke="white" stroke-width="1.5" stroke-linecap="round" stroke-linejoin="round"/>
</g>
</svg>
