<svg width="18" height="18" viewBox="0 0 18 18" fill="none" xmlns="http://www.w3.org/2000/svg">
<g id="Frame">
<path id="Vector" d="M9 0.75L15.1627 2.11948C15.5059 2.19574 15.75 2.5001 15.75 2.85163V10.3417C15.75 11.8463 14.998 13.2513 13.7461 14.0859L9 17.25L4.25385 14.0859C3.00196 13.2513 2.25 11.8463 2.25 10.3417V2.85163C2.25 2.5001 2.49415 2.19574 2.8373 2.11948L9 0.75ZM9 2.28659L3.75 3.45326V10.3417C3.75 11.3447 4.2513 12.2814 5.0859 12.8378L9 15.4472L12.9141 12.8378C13.7487 12.2814 14.25 11.3447 14.25 10.3417V3.45326L9 2.28659ZM12.3393 6.16637L13.4 7.22703L8.62695 12L5.44499 8.81805L6.50566 7.75732L8.62642 9.87818L12.3393 6.16637Z" fill="black"/>
</g>
</svg>
