<?xml version="1.0" standalone="no"?><!DOCTYPE svg PUBLIC "-//W3C//DTD SVG 1.1//EN" "http://www.w3.org/Graphics/SVG/1.1/DTD/svg11.dtd"><svg t="1715330615537" class="icon" viewBox="0 0 1024 1024" version="1.1" xmlns="http://www.w3.org/2000/svg" p-id="3664" width="200" height="200" xmlns:xlink="http://www.w3.org/1999/xlink"><path d="M1464.3 279.7" fill="#d81e06" p-id="3665"></path><path d="M512 960C264.6 960 64 759.4 64 512S264.6 64 512 64s448 200.6 448 448-200.6 448-448 448z m0-72c207.7 0 376-168.3 376-376S719.7 136 512 136 136 304.3 136 512s168.3 376 376 376z m0-120" fill="#d81e06" p-id="3666"></path><path d="M512 638c-19.8 0-36-16.2-36-36V314c0-19.8 16.2-36 36-36s36 16.2 36 36v288c0 19.8-16.2 36-36 36z" fill="#d81e06" p-id="3667"></path><path d="M512 710m-36 0a36 36 0 1 0 72 0 36 36 0 1 0-72 0Z" fill="#d81e06" p-id="3668"></path></svg>