<svg width="28" height="29" viewBox="0 0 28 29" fill="none" xmlns="http://www.w3.org/2000/svg">
<g id="&#230;&#136;&#145;&#231;&#154;&#132;-&#230;&#156;&#170;&#233;&#128;&#137;&#228;&#184;&#173;">
<path id="Ellipse 18" d="M20.8729 10.0587C20.6052 8.33765 19.7014 6.77964 18.3404 5.69274C17.4445 6.56524 15.0904 8.41007 12.8407 8.80941C15.1593 8.34571 16.0888 5.77729 16.2638 4.55105C14.6168 3.98417 12.8171 4.05584 11.2204 4.75191C9.62373 5.44797 8.34632 6.71776 7.64072 8.31023C6.93512 9.90271 6.85268 11.702 7.4097 13.3523C7.96671 15.0026 9.12265 16.3839 10.649 17.2231C12.1753 18.0622 13.9609 18.2982 15.6528 17.8843C17.3447 17.4704 18.8198 16.4368 19.7864 14.9878C20.7529 13.5388 21.1407 11.7798 20.8729 10.0587Z" stroke="#959595" stroke-linecap="round" stroke-linejoin="round"/>
<path id="Ellipse 19" d="M8.20361 23.5L7.70361 23.5C7.70361 23.7761 7.92747 24 8.20361 24L8.20361 23.5ZM19.0366 23.5L19.0366 24C19.3128 24 19.5366 23.7761 19.5366 23.5L19.0366 23.5ZM13.1201 21.4272C13.1201 21.7033 13.344 21.9272 13.6201 21.9272C13.8963 21.9272 14.1201 21.7033 14.1201 21.4272H13.1201ZM11.0473 22.1409C11.0473 22.4171 11.2712 22.6409 11.5473 22.6409C11.8235 22.6409 12.0473 22.4171 12.0473 22.1409H11.0473ZM15.1929 22.1409C15.1929 22.4171 15.4168 22.6409 15.6929 22.6409C15.9691 22.6409 16.1929 22.4171 16.1929 22.1409H15.1929ZM8.70361 23.5C8.70361 22.8544 8.83078 22.215 9.07786 21.6185L8.15398 21.2359C7.85665 21.9537 7.70361 22.723 7.70361 23.5L8.70361 23.5ZM9.07786 21.6185C9.32494 21.022 9.68709 20.48 10.1436 20.0235L9.43652 19.3164C8.88712 19.8658 8.45131 20.518 8.15398 21.2359L9.07786 21.6185ZM10.1436 20.0235C10.6002 19.567 11.1422 19.2048 11.7387 18.9577L11.356 18.0339C10.6381 18.3312 9.98592 18.767 9.43652 19.3164L10.1436 20.0235ZM11.7387 18.9577C12.3352 18.7107 12.9745 18.5835 13.6201 18.5835L13.6201 17.5835C12.8432 17.5835 12.0738 17.7365 11.356 18.0339L11.7387 18.9577ZM13.6201 18.5835C14.2658 18.5835 14.9051 18.7107 15.5016 18.9577L15.8843 18.0339C15.1664 17.7365 14.3971 17.5835 13.6201 17.5835L13.6201 18.5835ZM15.5016 18.9577C16.0981 19.2048 16.6401 19.567 17.0966 20.0235L17.8037 19.3164C17.2543 18.767 16.6021 18.3312 15.8843 18.0339L15.5016 18.9577ZM17.0966 20.0235C17.5532 20.48 17.9153 21.022 18.1624 21.6185L19.0863 21.2359C18.7889 20.518 18.3531 19.8658 17.8037 19.3164L17.0966 20.0235ZM18.1624 21.6185C18.4095 22.215 18.5366 22.8544 18.5366 23.5L19.5366 23.5C19.5366 22.723 19.3836 21.9537 19.0863 21.2359L18.1624 21.6185ZM19.0366 23L8.20361 23L8.20361 24L19.0366 24L19.0366 23ZM13.1201 18.0835V21.4272H14.1201V18.0835H13.1201ZM11.0473 18.4958V22.1409H12.0473V18.4958H11.0473ZM15.1929 18.4958V22.1409H16.1929V18.4958H15.1929Z" fill="#959595"/>
<circle id="Ellipse 20" cx="10.2324" cy="11.9974" r="0.869447" fill="#959595"/>
<circle id="Ellipse 21" cx="14.8694" cy="11.9974" r="0.869447" fill="#959595"/>
</g>
</svg>
