<svg width="18" height="18" viewBox="0 0 18 18" fill="none" xmlns="http://www.w3.org/2000/svg">
<g id="Frame">
<path id="Vector" d="M5.25 3V15H12.75V3H5.25ZM4.5 1.5H13.5C13.9142 1.5 14.25 1.83579 14.25 2.25V15.75C14.25 16.1642 13.9142 16.5 13.5 16.5H4.5C4.08579 16.5 3.75 16.1642 3.75 15.75V2.25C3.75 1.83579 4.08579 1.5 4.5 1.5ZM9 12.75C9.41422 12.75 9.75 13.0858 9.75 13.5C9.75 13.9142 9.41422 14.25 9 14.25C8.58578 14.25 8.25 13.9142 8.25 13.5C8.25 13.0858 8.58578 12.75 9 12.75Z" fill="black"/>
</g>
</svg>
