<svg width="28" height="29" viewBox="0 0 28 29" fill="none" xmlns="http://www.w3.org/2000/svg">
<g id="&#231;&#173;&#148;&#233;&#162;&#152;-&#233;&#128;&#137;&#228;&#184;&#173;">
<path id="Rectangle 26" d="M6.75269 16.7341L6.10571 21.263C6.01143 21.9229 6.57711 22.4886 7.23708 22.3943L11.7659 21.7474" stroke="black" stroke-linecap="round"/>
<g id="Rectangle 25">
<path d="M17.1447 12.0624C17.3399 11.8672 17.3399 11.5506 17.1447 11.3553C16.9494 11.1601 16.6328 11.1601 16.4375 11.3553L8.99275 18.8001L8.02878 17.8361L15.4736 10.3914C15.6688 10.1961 15.6688 9.87951 15.4736 9.68424C15.2783 9.48898 14.9617 9.48898 14.7665 9.68424L7.32168 17.129L6.83969 16.6471C6.5735 16.3809 6.5735 15.9493 6.83969 15.6831L15.12 7.40275L21.0972 13.3799L12.8169 21.6603C12.5507 21.9265 12.1191 21.9265 11.8529 21.6603L11.3709 21.1783L18.8157 13.7335C19.011 13.5382 19.011 13.2217 18.8157 13.0264C18.6205 12.8311 18.3039 12.8311 18.1086 13.0264L10.6638 20.4712L9.69986 19.5072L17.1447 12.0624ZM21.8043 12.6728L15.8271 6.69565L16.8445 5.67829C17.4303 5.0925 18.38 5.0925 18.9658 5.67829L22.8217 9.53416C23.4075 10.1199 23.4075 11.0697 22.8217 11.6555L21.8043 12.6728Z" fill="#3BCDA1"/>
<path d="M17.1447 12.0624C17.3399 11.8672 17.3399 11.5506 17.1447 11.3553C16.9494 11.1601 16.6328 11.1601 16.4375 11.3553L8.99275 18.8001L8.02878 17.8361L15.4736 10.3914C15.6688 10.1961 15.6688 9.87951 15.4736 9.68424C15.2783 9.48898 14.9617 9.48898 14.7665 9.68424L7.32168 17.129L6.83969 16.6471C6.5735 16.3809 6.5735 15.9493 6.83969 15.6831L15.12 7.40275L21.0972 13.3799L12.8169 21.6603C12.5507 21.9265 12.1191 21.9265 11.8529 21.6603L11.3709 21.1783L18.8157 13.7335C19.011 13.5382 19.011 13.2217 18.8157 13.0264C18.6205 12.8311 18.3039 12.8311 18.1086 13.0264L10.6638 20.4712L9.69986 19.5072L17.1447 12.0624ZM21.8043 12.6728L15.8271 6.69565L16.8445 5.67829C17.4303 5.0925 18.38 5.0925 18.9658 5.67829L22.8217 9.53416C23.4075 10.1199 23.4075 11.0697 22.8217 11.6555L21.8043 12.6728Z" fill="url(#paint0_linear_18_927)"/>
<path d="M17.1447 12.0624C17.3399 11.8672 17.3399 11.5506 17.1447 11.3553C16.9494 11.1601 16.6328 11.1601 16.4375 11.3553L8.99275 18.8001L8.02878 17.8361L15.4736 10.3914C15.6688 10.1961 15.6688 9.87951 15.4736 9.68424C15.2783 9.48898 14.9617 9.48898 14.7665 9.68424L7.32168 17.129L6.83969 16.6471C6.5735 16.3809 6.5735 15.9493 6.83969 15.6831L15.12 7.40275L21.0972 13.3799L12.8169 21.6603C12.5507 21.9265 12.1191 21.9265 11.8529 21.6603L11.3709 21.1783L18.8157 13.7335C19.011 13.5382 19.011 13.2217 18.8157 13.0264C18.6205 12.8311 18.3039 12.8311 18.1086 13.0264L10.6638 20.4712L9.69986 19.5072L17.1447 12.0624ZM21.8043 12.6728L15.8271 6.69565L16.8445 5.67829C17.4303 5.0925 18.38 5.0925 18.9658 5.67829L22.8217 9.53416C23.4075 10.1199 23.4075 11.0697 22.8217 11.6555L21.8043 12.6728Z" stroke="black" stroke-linecap="round"/>
</g>
</g>
<defs>
<linearGradient id="paint0_linear_18_927" x1="21.2473" y1="7.25267" x2="8.99275" y2="19.5072" gradientUnits="userSpaceOnUse">
<stop stop-color="#53B99D"/>
<stop offset="1" stop-color="#36D1A1"/>
</linearGradient>
</defs>
</svg>
