<svg width="24" height="24" viewBox="0 0 24 24" fill="none" xmlns="http://www.w3.org/2000/svg">
<g id="Frame">
<path id="Vector" d="M13.8352 3.37031C13.8352 3.12656 13.7578 2.89219 13.6196 2.71875C13.4813 2.54531 13.2961 2.44922 13.1016 2.44922C12.9071 2.44922 12.7196 2.54531 12.5836 2.71875C12.4453 2.89219 12.368 3.12656 12.368 3.37031V5.2125C12.368 5.45625 12.4453 5.69062 12.5836 5.86406C12.7219 6.0375 12.9071 6.13359 13.1016 6.13359C13.2961 6.13359 13.4836 6.0375 13.6196 5.86406C13.7578 5.69062 13.8352 5.45625 13.8352 5.2125V3.37031ZM10.6852 4.15078C10.5469 4.01719 10.3617 3.94453 10.1696 3.94453C9.97737 3.94688 9.79221 4.02422 9.65627 4.16016C9.52033 4.29609 9.44299 4.47891 9.44065 4.67109C9.4383 4.86328 9.5133 5.04844 9.6469 5.18672L10.3805 5.91797C10.4485 5.98828 10.5281 6.04453 10.6196 6.08203C10.7086 6.11953 10.8047 6.14062 10.9031 6.14062C11.0016 6.14062 11.0977 6.12188 11.1867 6.08672C11.2758 6.04922 11.3578 5.99531 11.4281 5.92734C11.4961 5.85937 11.5524 5.77734 11.5875 5.68594C11.625 5.59688 11.6438 5.49844 11.6414 5.40234C11.6414 5.30625 11.6203 5.21016 11.5828 5.11875C11.5453 5.02969 11.4891 4.94766 11.4188 4.88203L10.6852 4.15078ZM16.5539 5.18672C16.6875 5.04844 16.7625 4.86328 16.7602 4.67109C16.7578 4.47891 16.6805 4.29609 16.5446 4.16016C16.4086 4.02422 16.2235 3.94688 16.0313 3.94453C15.8391 3.94219 15.6539 4.01719 15.5156 4.15078L14.7821 4.88203C14.7117 4.95 14.6555 5.02969 14.618 5.11875C14.5805 5.20781 14.5594 5.30391 14.5594 5.40234C14.5594 5.49844 14.5781 5.59688 14.6133 5.68594C14.6508 5.775 14.7047 5.85703 14.7727 5.92734C14.8406 5.99531 14.9227 6.05156 15.0141 6.08672C15.1031 6.12422 15.2016 6.14297 15.2977 6.14062C15.3961 6.14062 15.4922 6.11953 15.5813 6.08203C15.6703 6.04453 15.7524 5.98828 15.8203 5.91797L16.5539 5.18672ZM10.0266 7.15547C9.68908 6.81797 9.24143 6.53672 8.74455 6.43594C8.2219 6.33047 7.63362 6.43594 7.17424 6.89531C7.03127 7.03594 6.9258 7.19063 6.84612 7.35C6.70549 7.28906 6.56018 7.24453 6.41018 7.21406C5.88752 7.10859 5.29924 7.21406 4.83987 7.67344C4.37815 8.13281 4.27502 8.71875 4.38049 9.24141C4.41096 9.39141 4.45784 9.53906 4.51643 9.67734C4.34768 9.76172 4.19299 9.87187 4.06174 10.0055C3.60002 10.4648 3.4969 11.0508 3.60237 11.5734C3.70315 12.0703 3.9844 12.518 4.3219 12.8555L4.35002 12.8812C4.2469 12.9492 4.1508 13.0266 4.06409 13.1133C3.60237 13.5727 3.49924 14.1586 3.60471 14.6813C3.70549 15.1781 3.98674 15.6258 4.32424 15.9633L7.95471 19.5891C9.43596 21.068 11.7516 21.1383 13.7344 20.1023C15.2649 20.4469 16.9617 20.0672 18.3914 18.6398C19.6571 17.3766 20.4399 15.382 20.4399 13.7273C20.4399 12.0023 19.6289 10.5398 18.2485 9.15937L17.8196 8.72109L17.8125 8.71406C17.475 8.37891 17.0274 8.09531 16.5305 7.99688C16.0078 7.89141 15.4196 7.99687 14.9602 8.45625C14.8688 8.54766 14.7914 8.64375 14.7258 8.74219L14.6977 8.71406H14.6953C14.3602 8.37891 13.9102 8.09531 13.4133 7.99688C12.8906 7.89141 12.3024 7.99687 11.843 8.45625C11.7516 8.54766 11.6742 8.64375 11.611 8.74219L10.0266 7.15547ZM11.0649 11.2992L8.46799 8.70938C8.28518 8.52891 8.17971 8.32969 8.14924 8.17734C8.12346 8.05312 8.14924 7.98984 8.20784 7.93359C8.26643 7.875 8.32737 7.84922 8.45393 7.875C8.60393 7.90313 8.80549 8.01094 8.98596 8.19141L12.1008 11.2969L13.6571 12.8508C13.725 12.9187 13.8071 12.9727 13.8961 13.0102C13.9852 13.0477 14.0813 13.0664 14.1774 13.0664C14.2735 13.0664 14.3696 13.0477 14.4586 13.0102C14.5477 12.9727 14.6297 12.9187 14.6977 12.8508C14.7656 12.7828 14.8196 12.7031 14.8571 12.6141C14.8946 12.525 14.9133 12.4289 14.9133 12.3328C14.9133 12.2367 14.8946 12.1406 14.8571 12.0516C14.8196 11.9625 14.7656 11.8828 14.6977 11.8148L13.1391 10.2633C12.9563 10.0805 12.8508 9.88125 12.8203 9.73125C12.7946 9.60703 12.8203 9.54375 12.8789 9.4875C12.9375 9.42891 12.9985 9.40312 13.125 9.42891C13.275 9.45937 13.4766 9.56484 13.6571 9.74766L13.6594 9.75L15.2063 11.2852L15.7266 11.8125L15.7313 11.8172C16.2656 12.3516 16.4789 13.2891 16.2446 14.4562C16.0125 15.607 15.3727 16.8375 14.4352 17.7727C14.0836 18.1266 13.6899 18.4313 13.261 18.6844C11.6156 19.6453 9.93049 19.4883 8.9883 18.5508L5.35549 14.925C5.17268 14.7422 5.06721 14.543 5.03674 14.393C5.01096 14.2687 5.03674 14.2055 5.09533 14.1492C5.15393 14.0906 5.21487 14.0648 5.34143 14.0906C5.49143 14.1211 5.69299 14.2266 5.8758 14.4094L7.43205 15.9609C7.50002 16.0336 7.57971 16.0898 7.67112 16.1297C7.76018 16.1695 7.85862 16.1906 7.95705 16.193C8.05549 16.1953 8.15393 16.1766 8.24299 16.1391C8.3344 16.1016 8.41643 16.0477 8.48674 15.9773C8.55705 15.907 8.61096 15.825 8.64846 15.7336C8.68596 15.6422 8.70471 15.5461 8.70237 15.4477C8.70002 15.3492 8.67893 15.2531 8.63909 15.1641C8.59924 15.075 8.54299 14.993 8.47033 14.9273L6.91409 13.3688L5.35784 11.8172C5.17502 11.6344 5.06955 11.4352 5.03909 11.2852C5.0133 11.1609 5.03909 11.0977 5.09768 11.0391C5.15627 10.9805 5.21721 10.9547 5.34377 10.9805C5.49377 11.0109 5.69534 11.1164 5.87815 11.2992L8.47033 13.8891C8.5383 13.957 8.62034 14.0109 8.7094 14.0484C8.79846 14.0859 8.89455 14.1047 8.99065 14.1047C9.08674 14.1047 9.18284 14.0859 9.2719 14.0484C9.36096 14.0109 9.44299 13.957 9.51096 13.8891C9.57893 13.8211 9.63284 13.7414 9.67034 13.6523C9.70784 13.5633 9.72658 13.4672 9.72658 13.3711C9.72658 13.275 9.70784 13.1789 9.67034 13.0898C9.63284 13.0008 9.57893 12.9211 9.51096 12.8531L6.91409 10.2633L6.13596 9.4875C5.95315 9.30469 5.84768 9.10547 5.81721 8.95547C5.79143 8.83125 5.81721 8.76797 5.8758 8.70938C5.9344 8.65078 5.99534 8.625 6.1219 8.65078C6.2719 8.68125 6.47346 8.78672 6.65393 8.96953L7.43205 9.74531L10.0266 12.3352C10.1649 12.4687 10.35 12.5414 10.5422 12.5414C10.7344 12.5391 10.9196 12.4617 11.0555 12.3258C11.1914 12.1898 11.2688 12.007 11.2711 11.8148C11.2711 11.6227 11.1961 11.4375 11.0649 11.2992ZM17.3508 17.5992C16.8 18.15 16.2164 18.4805 15.6375 18.6375C16.6875 17.5242 17.4094 16.1109 17.6836 14.7422C17.9672 13.3219 17.7891 11.8008 16.7719 10.7812L16.2516 10.2516L16.2469 10.2469C16.0641 10.0641 15.961 9.86719 15.9328 9.72422C15.9094 9.60703 15.9328 9.54609 15.9961 9.48516C16.0547 9.42656 16.1156 9.40078 16.2422 9.42656C16.3922 9.45469 16.5914 9.56016 16.7719 9.74063L17.2008 10.1789L17.2055 10.1836C18.4242 11.4047 18.9703 12.518 18.9703 13.7203C18.9703 14.9977 18.3352 16.6148 17.3508 17.5992Z" fill="black"/>
</g>
</svg>
