<svg width="22" height="22" viewBox="0 0 22 22" fill="none" xmlns="http://www.w3.org/2000/svg">
<g id="icon-&#230;&#173;&#163;&#231;&#161;&#174;">
<path id="Subtract" fill-rule="evenodd" clip-rule="evenodd" d="M11 22C17.0751 22 22 17.0751 22 11C22 4.92487 17.0751 0 11 0C4.92487 0 0 4.92487 0 11C0 17.0751 4.92487 22 11 22ZM16.6213 7.43934C16.0355 6.85355 15.0858 6.85355 14.5 7.43934L9.1201 12.8192L6.88638 10.3154C6.3006 9.72959 5.35085 9.72959 4.76506 10.3154C4.17928 10.9012 4.17928 11.8509 4.76506 12.4367L7.90401 15.9552C7.92759 15.9837 7.95238 16.0115 7.97839 16.0386L7.98637 16.0476C7.99113 16.0523 7.9959 16.057 8.00071 16.0617C8.00535 16.0662 8.01001 16.0707 8.01469 16.0752C8.60156 16.6464 9.5404 16.6416 10.1213 16.0607L16.6213 9.56066C17.2071 8.97487 17.2071 8.02513 16.6213 7.43934Z" fill="white"/>
</g>
</svg>
