<svg width="22" height="22" viewBox="0 0 22 22" fill="none" xmlns="http://www.w3.org/2000/svg">
<g id="icon-&#233;&#148;&#153;&#232;&#175;&#175;">
<path id="Subtract" fill-rule="evenodd" clip-rule="evenodd" d="M11 22C17.0751 22 22 17.0751 22 11C22 4.92487 17.0751 0 11 0C4.92487 0 0 4.92487 0 11C0 17.0751 4.92487 22 11 22ZM6.43935 6.93933C7.02513 6.35358 7.97487 6.35358 8.56065 6.93933L10.75 9.12866L12.9393 6.93933C13.5251 6.35358 14.4749 6.35358 15.0607 6.93933C15.6465 7.52515 15.6465 8.47485 15.0607 9.06067L12.8713 11.25L15.0607 13.4393C15.6465 14.0251 15.6465 14.9749 15.0607 15.5607C14.4749 16.1464 13.5251 16.1464 12.9393 15.5607L10.75 13.3713L8.56065 15.5607C7.97487 16.1464 7.02513 16.1464 6.43935 15.5607C5.85355 14.9749 5.85355 14.0251 6.43935 13.4393L8.62868 11.25L6.43935 9.06067C5.85355 8.47485 5.85355 7.52515 6.43935 6.93933Z" fill="white"/>
</g>
</svg>
